<svg width="2467" height="324" viewBox="0 0 2467 324" fill="none" xmlns="http://www.w3.org/2000/svg">
<path d="M14.0203 208.7C23.587 215.7 33.8536 221.3 44.8203 225.5C55.787 229.7 68.9703 231.8 84.3703 231.8C99.7703 231.8 111.204 229.233 118.67 224.1C126.137 218.967 129.87 212.667 129.87 205.2C129.87 198.667 125.787 192.833 117.62 187.7C109.687 182.567 95.337 177.433 74.5703 172.3C65.7037 170.2 57.3036 167.633 49.3703 164.6C41.6703 161.567 34.9036 158.067 29.0703 154.1C23.237 149.9 18.5703 145.35 15.0703 140.45C11.5703 135.55 9.82031 130.067 9.82031 124C9.82031 117.233 11.337 110.933 14.3703 105.1C17.4036 99.0333 21.837 93.9 27.6703 89.7C33.737 85.2667 41.2036 81.8833 50.0703 79.55C59.1703 76.9833 69.5537 75.7 81.2203 75.7C94.0537 75.7 106.537 77.9167 118.67 82.35C130.804 86.55 141.07 91.5667 149.47 97.4L135.47 115.95C128.004 110.583 119.72 106.267 110.62 103C101.52 99.7333 91.7203 98.1 81.2203 98.1C73.287 98.1 66.637 98.8 61.2703 100.2C55.9036 101.367 51.587 103.117 48.3203 105.45C45.0536 107.55 42.7203 110.117 41.3203 113.15C39.9203 116.183 39.2203 119.333 39.2203 122.6C39.2203 129.6 44.0037 135.433 53.5703 140.1C63.137 144.533 75.6203 148.733 91.0203 152.7C114.12 158.533 131.154 165.183 142.12 172.65C153.32 180.117 158.92 190.383 158.92 203.45C158.92 210.45 157.287 216.983 154.02 223.05C150.754 229.117 145.854 234.483 139.32 239.15C133.02 243.817 125.087 247.433 115.52 250C106.187 252.8 95.4537 254.2 83.3203 254.2C66.5203 254.2 51.0036 251.633 36.7703 246.5C22.7703 241.133 10.5203 234.833 0.020314 227.6L14.0203 208.7ZM205.684 165.3C205.684 151.067 207.9 138.467 212.334 127.5C217 116.3 223.184 106.85 230.884 99.15C238.584 91.45 247.45 85.6167 257.484 81.65C267.75 77.6833 278.484 75.7 289.684 75.7C300.884 75.7 311.5 77.6833 321.534 81.65C331.8 85.6167 340.784 91.45 348.484 99.15C356.184 106.85 362.25 116.3 366.684 127.5C371.35 138.467 373.684 151.067 373.684 165.3C373.684 179.3 371.35 191.9 366.684 203.1C362.25 214.067 356.184 223.4 348.484 231.1C340.784 238.567 331.8 244.283 321.534 248.25C311.5 252.217 300.884 254.2 289.684 254.2C278.484 254.2 267.75 252.217 257.484 248.25C247.45 244.283 238.584 238.567 230.884 231.1C223.184 223.4 217 214.067 212.334 203.1C207.9 191.9 205.684 179.3 205.684 165.3ZM235.434 165.3C235.434 175.1 236.717 183.967 239.284 191.9C241.85 199.833 245.467 206.717 250.134 212.55C255.034 218.15 260.75 222.583 267.284 225.85C274.05 228.883 281.517 230.4 289.684 230.4C297.85 230.4 305.2 228.883 311.734 225.85C318.5 222.583 324.217 218.15 328.884 212.55C333.784 206.717 337.517 199.833 340.084 191.9C342.65 183.967 343.934 175.1 343.934 165.3C343.934 155.5 342.65 146.633 340.084 138.7C337.517 130.533 333.784 123.533 328.884 117.7C324.217 111.867 318.5 107.433 311.734 104.4C305.2 101.133 297.85 99.5 289.684 99.5C281.517 99.5 274.05 101.133 267.284 104.4C260.75 107.433 255.034 111.867 250.134 117.7C245.467 123.533 241.85 130.533 239.284 138.7C236.717 146.633 235.434 155.5 235.434 165.3ZM422.547 165.3C422.547 151.067 424.997 138.467 429.897 127.5C435.03 116.3 441.914 106.85 450.547 99.15C459.18 91.45 469.214 85.6167 480.647 81.65C492.314 77.6833 504.564 75.7 517.397 75.7C531.397 75.7 543.414 78.15 553.447 83.05C563.714 87.95 572.347 93.7833 579.347 100.55L564.997 119.1C557.997 113.033 550.647 108.25 542.947 104.75C535.48 101.25 527.314 99.5 518.447 99.5C508.647 99.5 499.664 101.133 491.497 104.4C483.33 107.433 476.33 111.867 470.497 117.7C464.897 123.533 460.464 130.533 457.197 138.7C453.93 146.633 452.297 155.5 452.297 165.3C452.297 175.1 453.814 183.967 456.847 191.9C460.114 199.833 464.547 206.717 470.147 212.55C475.98 218.15 482.864 222.583 490.797 225.85C498.964 228.883 507.947 230.4 517.747 230.4C528.247 230.4 537.814 228.417 546.447 224.45C555.314 220.25 563.364 215.117 570.597 209.05L583.197 227.6C573.864 236 563.364 242.533 551.697 247.2C540.264 251.867 528.247 254.2 515.647 254.2C502.347 254.2 489.98 252.217 478.547 248.25C467.347 244.283 457.547 238.567 449.147 231.1C440.747 223.4 434.214 214.067 429.547 203.1C424.88 191.9 422.547 179.3 422.547 165.3ZM635.91 79.9H743.71V250H715.01V103.35H635.91V79.9ZM726.21 44.9C719.443 44.9 713.843 42.9167 709.41 38.95C705.21 34.9833 703.11 29.6167 703.11 22.85C703.11 16.0833 705.21 10.7167 709.41 6.74998C713.843 2.54998 719.443 0.449979 726.21 0.449979C732.743 0.449979 738.227 2.54998 742.66 6.74998C747.093 10.7167 749.31 16.0833 749.31 22.85C749.31 29.6167 747.093 34.9833 742.66 38.95C738.227 42.9167 732.743 44.9 726.21 44.9ZM838.423 165.3C838.423 151.3 840.873 138.817 845.773 127.85C850.673 116.65 857.09 107.2 865.023 99.5C873.19 91.8 882.407 85.9667 892.673 82C903.173 77.8 913.907 75.7 924.873 75.7C937.007 75.7 947.857 77.6833 957.423 81.65C966.99 85.3833 975.04 90.75 981.573 97.75C988.34 104.75 993.473 113.15 996.973 122.95C1000.47 132.75 1002.22 143.6 1002.22 155.5C1002.22 158.533 1002.11 161.567 1001.87 164.6C1001.87 167.4 1001.64 169.85 1001.17 171.95H868.173C868.407 181.05 870.157 189.217 873.423 196.45C876.923 203.683 881.473 209.867 887.073 215C892.907 220.133 899.673 224.1 907.373 226.9C915.307 229.7 923.94 231.1 933.273 231.1C943.307 231.1 952.407 229.7 960.573 226.9C968.973 224.1 977.14 220.25 985.073 215.35L995.223 234.25C986.823 239.617 977.257 244.283 966.523 248.25C955.79 252.217 943.54 254.2 929.773 254.2C917.173 254.2 905.273 252.217 894.073 248.25C883.107 244.05 873.423 238.217 865.023 230.75C856.857 223.05 850.323 213.717 845.423 202.75C840.757 191.783 838.423 179.3 838.423 165.3ZM975.623 151.3C975.623 134.267 971.19 121.2 962.323 112.1C953.457 103 941.09 98.45 925.223 98.45C918.223 98.45 911.457 99.6167 904.923 101.95C898.623 104.283 892.907 107.783 887.773 112.45C882.64 116.883 878.323 122.367 874.823 128.9C871.323 135.433 868.99 142.9 867.823 151.3H975.623ZM1096.24 103.35H1048.29V81.65L1097.29 79.9L1101.14 32.3H1124.94V79.9H1208.59V103.35H1124.94V184.2C1124.94 191.9 1125.64 198.667 1127.04 204.5C1128.44 210.1 1130.77 214.883 1134.04 218.85C1137.3 222.817 1141.74 225.85 1147.34 227.95C1152.94 229.817 1159.82 230.75 1167.99 230.75C1176.15 230.75 1183.5 230.05 1190.04 228.65C1196.57 227.25 1202.87 225.383 1208.94 223.05L1215.24 244.05C1207.54 246.85 1199.02 249.183 1189.69 251.05C1180.35 253.15 1171.02 254.2 1161.69 254.2C1149.32 254.2 1138.94 252.567 1130.54 249.3C1122.14 245.8 1115.37 241.017 1110.24 234.95C1105.34 228.65 1101.72 221.183 1099.39 212.55C1097.29 203.917 1096.24 194.35 1096.24 183.85V103.35ZM1263.4 296.9C1265.73 297.6 1268.18 298.183 1270.75 298.65C1273.55 299.117 1276.23 299.35 1278.8 299.35C1290.7 299.35 1300.38 295.85 1307.85 288.85C1315.32 282.083 1321.15 273.45 1325.35 262.95L1330.6 250.35L1251.15 79.9H1280.2L1321.85 174.05C1325.12 181.517 1328.5 189.567 1332 198.2C1335.73 206.833 1339.35 215.233 1342.85 223.4H1344.25C1347.28 215.233 1350.32 206.95 1353.35 198.55C1356.62 189.917 1359.65 181.75 1362.45 174.05L1399.55 79.9H1426.85L1351.95 264C1348.68 272.4 1344.95 280.217 1340.75 287.45C1336.55 294.683 1331.53 300.867 1325.7 306C1319.87 311.367 1313.1 315.567 1305.4 318.6C1297.93 321.633 1289.42 323.15 1279.85 323.15C1271.45 323.15 1263.98 321.983 1257.45 319.65L1263.4 296.9ZM1520.51 99.5C1520.51 90.6333 1523.2 83.5167 1528.56 78.15C1534.16 72.55 1540.93 69.75 1548.86 69.75C1556.8 69.75 1563.45 72.55 1568.81 78.15C1574.41 83.5167 1577.21 90.6333 1577.21 99.5C1577.21 108.367 1574.41 115.483 1568.81 120.85C1563.45 126.217 1556.8 128.9 1548.86 128.9C1540.93 128.9 1534.16 126.217 1528.56 120.85C1523.2 115.483 1520.51 108.367 1520.51 99.5ZM1520.51 224.8C1520.51 215.933 1523.2 208.817 1528.56 203.45C1534.16 197.85 1540.93 195.05 1548.86 195.05C1556.8 195.05 1563.45 197.85 1568.81 203.45C1574.41 208.817 1577.21 215.933 1577.21 224.8C1577.21 233.667 1574.41 240.783 1568.81 246.15C1563.45 251.517 1556.8 254.2 1548.86 254.2C1540.93 254.2 1534.16 251.517 1528.56 246.15C1523.2 240.783 1520.51 233.667 1520.51 224.8ZM1725.83 103.35H1677.88V81.65L1726.88 79.9L1730.73 32.3H1754.53V79.9H1838.18V103.35H1754.53V184.2C1754.53 191.9 1755.23 198.667 1756.63 204.5C1758.03 210.1 1760.36 214.883 1763.63 218.85C1766.89 222.817 1771.33 225.85 1776.93 227.95C1782.53 229.817 1789.41 230.75 1797.58 230.75C1805.74 230.75 1813.09 230.05 1819.63 228.65C1826.16 227.25 1832.46 225.383 1838.53 223.05L1844.83 244.05C1837.13 246.85 1828.61 249.183 1819.28 251.05C1809.94 253.15 1800.61 254.2 1791.28 254.2C1778.91 254.2 1768.53 252.567 1760.13 249.3C1751.73 245.8 1744.96 241.017 1739.83 234.95C1734.93 228.65 1731.31 221.183 1728.98 212.55C1726.88 203.917 1725.83 194.35 1725.83 183.85V103.35ZM1887.74 165.3C1887.74 151.3 1890.19 138.817 1895.09 127.85C1899.99 116.65 1906.41 107.2 1914.34 99.5C1922.51 91.8 1931.72 85.9667 1941.99 82C1952.49 77.8 1963.22 75.7 1974.19 75.7C1986.32 75.7 1997.17 77.6833 2006.74 81.65C2016.31 85.3833 2024.36 90.75 2030.89 97.75C2037.66 104.75 2042.79 113.15 2046.29 122.95C2049.79 132.75 2051.54 143.6 2051.54 155.5C2051.54 158.533 2051.42 161.567 2051.19 164.6C2051.19 167.4 2050.96 169.85 2050.49 171.95H1917.49C1917.72 181.05 1919.47 189.217 1922.74 196.45C1926.24 203.683 1930.79 209.867 1936.39 215C1942.22 220.133 1948.99 224.1 1956.69 226.9C1964.62 229.7 1973.26 231.1 1982.59 231.1C1992.62 231.1 2001.72 229.7 2009.89 226.9C2018.29 224.1 2026.46 220.25 2034.39 215.35L2044.54 234.25C2036.14 239.617 2026.57 244.283 2015.84 248.25C2005.11 252.217 1992.86 254.2 1979.09 254.2C1966.49 254.2 1954.59 252.217 1943.39 248.25C1932.42 244.05 1922.74 238.217 1914.34 230.75C1906.17 223.05 1899.64 213.717 1894.74 202.75C1890.07 191.783 1887.74 179.3 1887.74 165.3ZM2024.94 151.3C2024.94 134.267 2020.51 121.2 2011.64 112.1C2002.77 103 1990.41 98.45 1974.54 98.45C1967.54 98.45 1960.77 99.6167 1954.24 101.95C1947.94 104.283 1942.22 107.783 1937.09 112.45C1931.96 116.883 1927.64 122.367 1924.14 128.9C1920.64 135.433 1918.31 142.9 1917.14 151.3H2024.94ZM2101.45 165.3C2101.45 151.067 2103.9 138.467 2108.8 127.5C2113.94 116.3 2120.82 106.85 2129.45 99.15C2138.09 91.45 2148.12 85.6167 2159.55 81.65C2171.22 77.6833 2183.47 75.7 2196.3 75.7C2210.3 75.7 2222.32 78.15 2232.35 83.05C2242.62 87.95 2251.25 93.7833 2258.25 100.55L2243.9 119.1C2236.9 113.033 2229.55 108.25 2221.85 104.75C2214.39 101.25 2206.22 99.5 2197.35 99.5C2187.55 99.5 2178.57 101.133 2170.4 104.4C2162.24 107.433 2155.24 111.867 2149.4 117.7C2143.8 123.533 2139.37 130.533 2136.1 138.7C2132.84 146.633 2131.2 155.5 2131.2 165.3C2131.2 175.1 2132.72 183.967 2135.75 191.9C2139.02 199.833 2143.45 206.717 2149.05 212.55C2154.89 218.15 2161.77 222.583 2169.7 225.85C2177.87 228.883 2186.85 230.4 2196.65 230.4C2207.15 230.4 2216.72 228.417 2225.35 224.45C2234.22 220.25 2242.27 215.117 2249.5 209.05L2262.1 227.6C2252.77 236 2242.27 242.533 2230.6 247.2C2219.17 251.867 2207.15 254.2 2194.55 254.2C2181.25 254.2 2168.89 252.217 2157.45 248.25C2146.25 244.283 2136.45 238.567 2128.05 231.1C2119.65 223.4 2113.12 214.067 2108.45 203.1C2103.79 191.9 2101.45 179.3 2101.45 165.3ZM2315.87 0.799996H2344.57V68.7L2343.17 108.95C2352.27 99.3833 2361.95 91.45 2372.22 85.15C2382.48 78.85 2394.27 75.7 2407.57 75.7C2427.87 75.7 2442.68 81.5333 2452.02 93.2C2461.58 104.633 2466.37 121.667 2466.37 144.3V250H2437.67V148.15C2437.67 132.05 2434.63 120.15 2428.57 112.45C2422.5 104.517 2412.47 100.55 2398.47 100.55C2393.33 100.55 2388.55 101.25 2384.12 102.65C2379.92 103.817 2375.72 105.683 2371.52 108.25C2367.32 110.817 2363 114.083 2358.57 118.05C2354.13 121.783 2349.47 126.217 2344.57 131.35V250H2315.87V0.799996Z" fill="#C6C5B9"/>
</svg>
